<?xml version="1.0" standalone="no"?><!DOCTYPE svg PUBLIC "-//W3C//DTD SVG 1.1//EN" "http://www.w3.org/Graphics/SVG/1.1/DTD/svg11.dtd"><svg t="1619178498492" class="icon" viewBox="0 0 1024 1024" version="1.1" xmlns="http://www.w3.org/2000/svg" p-id="1141" xmlns:xlink="http://www.w3.org/1999/xlink" width="200" height="200"><defs><style type="text/css"></style></defs><path d="M469.333 96c206.187 0 373.334 167.147 373.334 373.333 0 91.573-32.97 175.445-87.684 240.394l163.644 163.646c12.497 12.496 12.497 32.758 0 45.254-12.371 12.372-32.353 12.496-44.877 0.372l-0.377-0.372-163.646-163.644c-64.95 54.715-148.821 87.684-240.394 87.684C263.147 842.667 96 675.52 96 469.333 96 263.147 263.147 96 469.333 96z m0 64C298.493 160 160 298.493 160 469.333c0 170.841 138.493 309.334 309.333 309.334 170.841 0 309.334-138.493 309.334-309.334C778.667 298.493 640.174 160 469.333 160z m0 149.333c17.497 0 31.713 14.042 31.996 31.471l0.004 0.53v95.999h96c17.673 0 32 14.327 32 32 0 17.497-14.041 31.713-31.47 31.996l-0.53 0.004h-96v96c0 17.673-14.327 32-32 32-17.496 0-31.713-14.041-31.995-31.47l-0.005-0.53v-96h-96c-17.673 0-32-14.327-32-32 0-17.496 14.042-31.713 31.471-31.995l0.53-0.005h95.999v-96c0-17.673 14.327-32 32-32z" p-id="1142" fill="#cdcdcd"></path></svg>